<svg xmlns="http://www.w3.org/2000/svg" xmlns:xlink="http://www.w3.org/1999/xlink" version="1.1" id="Layer_1" x="0px" y="0px" width="100px" height="100px" viewBox="0 0 100 100" enable-background="new 0 0 100 100" xml:space="preserve">
<path d="M76.587,57.105h-9.69c-0.769,0-1.392,0.624-1.392,1.393v21.621c0,0.769,0.623,1.392,1.392,1.392h9.69  c0.769,0,1.392-0.623,1.392-1.392V58.498C77.979,57.729,77.356,57.105,76.587,57.105z"/>
<path d="M61.496,64.039h-10.51c-0.769,0-1.392,0.624-1.392,1.393v14.676c0,0.769,0.623,1.392,1.392,1.392h10.51  c0.769,0,1.392-0.623,1.392-1.392V65.432C62.888,64.663,62.265,64.039,61.496,64.039z"/>
<path d="M91.61,49.6h-9.689c-0.769,0-1.392,0.624-1.392,1.392v28.902c0,0.769,0.623,1.392,1.392,1.392h9.689  c0.769,0,1.392-0.623,1.392-1.392V50.991C93.002,50.224,92.379,49.6,91.61,49.6z"/>
<ellipse transform="matrix(0.961 0.2766 -0.2766 0.961 7.0597 -8.0222)" cx="31.964" cy="21.011" rx="5.978" ry="7.176"/>
<path fill="#000000" d="M33.361,31.032c5.333,4.123,12.058,7.672,16.145,10.693c2.963,2.189,1.069,6.719-3.618,4.271  c-4.403-2.301-13.922-10.672-15.967-9.683c-1.692,0.819-3.596,11.114-4.152,13.915c-0.614,3.093,10.883,8.075,12.513,12.111  c1.194,2.957,2.669,10.443,3.494,15.719c0.645,4.123-5.669,4.553-6.571,0.772c-0.88-3.688-1.17-9.591-2.885-12.368  c-1.444-2.339-9.083-7.005-9.087-6.185c-0.011,2.319,2.604,6.874,2.537,9.277c-0.087,3.085-3.693,7.424-5.234,9.461  c-2.981,3.938-8.522,2.649-6.847-0.7c1.474-2.945,4.718-6.895,5.025-9.148c0.387-2.834-4.973-9.975-5.54-13.637  c-1.071-6.924,3.045-23.06,8.705-26.725C24.333,27.216,31.045,29.242,33.361,31.032z"/>
<path d="M67.887,24.618l0.317-0.344c0.515-0.558,0.488-1.426-0.062-1.95l-1.168-1.114c-0.55-0.524-1.417-0.514-1.951,0.028  l-0.332,0.336c-2.577-2.132-5.93-4.268-10.292-6.186c-0.289-0.127-0.626-0.1-0.89,0.078c-0.264,0.177-0.419,0.476-0.411,0.793  l0.055,2.397c0.008,0.364,0.229,0.689,0.565,0.833c0.077,0.032,4.104,1.771,8.346,4.74L45.399,41.082  c-0.263,0.266-0.407,0.626-0.402,0.999c0.005,0.373,0.16,0.729,0.43,0.986l1.869,1.785c0.259,0.248,0.604,0.386,0.961,0.386  c0.015,0,0.03,0,0.044-0.001c0.374-0.012,0.726-0.173,0.979-0.447l16.363-17.74c2.565,2.293,4.796,5.022,5.75,8.075  c0.123,0.394,0.486,0.65,0.885,0.65c0.06,0,0.122-0.005,0.183-0.018c0.466-0.094,0.786-0.524,0.741-0.996  C73.176,34.463,72.666,29.888,67.887,24.618z"/>
</svg>